# xmcd CD database file
#
# Track frame offsets:
#	182
#	10685
#	34442
#	45975
#	60710
#	71635
#	89510
#	102450
#	113707
#	134785
#	149457
#
# Disc length: 2177 seconds
#
# Revision: 2
# Processed by: cddbd v1.4PL0 Copyright (c) Steve Scherf et al.
# Submitted via: CDex 1.50Beta7
#
DISCID=a1087f0b
DTITLE=Teddy Wilson - Swedish Jazz My Way
DYEAR=1970
DGENRE=Jazz
TTITLE0=Swing In F
TTITLE1=Jam Session Cupol
TTITLE2=Too Late
TTITLE3=Nobody Is Like You
TTITLE4=Fantasy In B
TTITLE5=Melody In B
TTITLE6=Almost Bald
TTITLE7=My Love Is Yours
TTITLE8=Inspired By You
TTITLE9=You Can't Be In Love With A Dream
TTITLE10=Nice To have Them Around
EXTD=YEAR: 1970
EXTT0=
EXTT1=
EXTT2=
EXTT3=
EXTT4=
EXTT5=
EXTT6=
EXTT7=
EXTT8=
EXTT9=
EXTT10=
PLAYORDER=
